<svg width="131" height="160" viewBox="0 0 131 160" fill="none" xmlns="http://www.w3.org/2000/svg">
<path d="M56.6887 4.57826C20.2253 175.921 98.2367 125.701 110.208 94.0122" stroke="white" stroke-width="9.15465" stroke-linecap="round"/>
<path d="M126.36 122.138C114.703 149.495 91.2028 154.738 74.888 154.738" stroke="white" stroke-width="9.15465" stroke-linecap="round"/>
<circle cx="25.7037" cy="95.4206" r="5.28153" fill="white" stroke="white" stroke-width="0.704204"/>
<circle cx="71.8372" cy="74.2945" r="5.28153" fill="white" stroke="white" stroke-width="0.704204"/>
<path d="M37.1387 60.6484C26.7381 66.0664 17.2557 71.6369 7.04004 78.1533C4.90878 79.5128 2.0783 78.887 0.71875 76.7558C-0.640489 74.6247 -0.0147591 71.7951 2.11621 70.4355C14.3783 62.6138 25.6187 56.1246 38.4619 49.6943L37.1387 60.6484ZM107.843 20.0302C110.198 19.113 112.852 20.2793 113.77 22.6347C114.687 24.9901 113.521 27.6438 111.166 28.5615C81.0966 40.2745 60.7629 48.8303 43.5791 57.3711L44.8867 46.5459C61.2658 38.6906 80.6648 30.617 107.843 20.0302Z" fill="white"/>
</svg>
